<?xml version="1.0" encoding="UTF-8"?>
<svg width="21px" height="20px" viewBox="0 0 21 20" version="1.1" xmlns="http://www.w3.org/2000/svg" xmlns:xlink="http://www.w3.org/1999/xlink">
    <title>AddCircleOutlineOutlined Copy</title>
    <g id="Stem-Screens" stroke="none" stroke-width="1" fill="none" fill-rule="evenodd">
        <g id="FMECA-Calculator-1.1" transform="translate(-646.000000, -299.000000)" fill="#000000" fill-rule="nonzero">
            <g id="Group-12" transform="translate(646.500000, 299.000000)">
                <path d="M11,5.00000002 L9.00000002,5.00000002 L9.00000002,9.00000002 L5.00000002,9.00000002 L5.00000002,11 L9.00000002,11 L9.00000002,15 L11,15 L11,11 L15,11 L15,9.00000002 L11,9.00000002 L11,5.00000002 Z M10,0 C4.48000002,0 0,4.48000002 0,10 C0,15.5200001 4.48000002,20 10,20 C15.5200001,20 20,15.5200001 20,10 C20,4.48000002 15.5200001,0 10,0 Z M10,18 C5.59000002,18 2.00000001,14.4100001 2.00000001,10 C2.00000001,5.59000002 5.59000002,2.00000001 10,2.00000001 C14.4100001,2.00000001 18,5.59000002 18,10 C18,14.4100001 14.4100001,18 10,18 Z" id="AddCircleOutlineOutlined-Copy"></path>
            </g>
        </g>
    </g>
</svg>