<?xml version="1.0" encoding="UTF-8"?>
<svg width="18px" height="18px" viewBox="0 0 18 18" version="1.1" xmlns="http://www.w3.org/2000/svg" xmlns:xlink="http://www.w3.org/1999/xlink">
    <title>ListAltOutlined</title>
    <g id="Stem-Screens" stroke="none" stroke-width="1" fill="none" fill-rule="evenodd" fill-opacity="0.54">
        <g id="FMECA-Calculator-1.1" transform="translate(-365.000000, -233.000000)" fill="#000000" fill-rule="nonzero">
            <g id="Calculator-Mangement" transform="translate(365.000000, 233.000000)">
                <path d="M8.00000003,4.00000002 L14,4.00000002 L14,6.00000002 L8.00000003,6.00000002 L8.00000003,4.00000002 Z M8.00000003,8.00000003 L14,8.00000003 L14,10 L8.00000003,10 L8.00000003,8.00000003 Z M8.00000003,12 L14,12 L14,14 L8.00000003,14 L8.00000003,12 Z M4.00000002,4.00000002 L6.00000002,4.00000002 L6.00000002,6.00000002 L4.00000002,6.00000002 L4.00000002,4.00000002 Z M4.00000002,8.00000003 L6.00000002,8.00000003 L6.00000002,10 L4.00000002,10 L4.00000002,8.00000003 Z M4.00000002,12 L6.00000002,12 L6.00000002,14 L4.00000002,14 L4.00000002,12 Z M17.1000001,0 L0.900000004,0 C0.400000002,0 0,0.400000002 0,0.900000004 L0,17.1000001 C0,17.5 0.400000002,18 0.900000004,18 L17.1000001,18 C17.5,18 18,17.5 18,17.1000001 L18,0.900000004 C18,0.400000002 17.5,0 17.1000001,0 Z M16,16 L2.00000001,16 L2.00000001,2.00000001 L16,2.00000001 L16,16 Z" id="ListAltOutlined"></path>
            </g>
        </g>
    </g>
</svg>