<?xml version="1.0" encoding="UTF-8"?>
<svg width="16px" height="16px" viewBox="0 0 16 16" version="1.1" xmlns="http://www.w3.org/2000/svg" xmlns:xlink="http://www.w3.org/1999/xlink">
    <title>PersonOutlineOutlined</title>
    <g id="Stem-Screens" stroke="none" stroke-width="1" fill="none" fill-rule="evenodd" fill-opacity="0.54">
        <g id="Project-overview--1.0" transform="translate(-254.000000, -181.000000)" fill="#000000" fill-rule="nonzero">
            <g id="Group-11" transform="translate(66.000000, 173.000000)">
                <g id="Group-3" transform="translate(188.000000, 8.000000)">
                    <path d="M8.00000003,1.90000001 C9.16000004,1.90000001 10.1,2.84000001 10.1,4.00000002 C10.1,5.16000002 9.16000004,6.10000003 8.00000003,6.10000003 C6.84000003,6.10000003 5.90000002,5.16000002 5.90000002,4.00000002 C5.90000002,2.84000001 6.84000003,1.90000001 8.00000003,1.90000001 Z M8.00000003,10.9 C10.97,10.9 14.1000001,12.3600001 14.1000001,13.0000001 L14.1000001,14.1000001 L1.90000001,14.1000001 L1.90000001,13.0000001 C1.90000001,12.3600001 5.03000002,10.9 8.00000003,10.9 Z M8.00000002,0 C5.79000002,0 4.00000002,1.79000001 4.00000002,4 C4.00000002,6.21000003 5.79000002,8 8.00000002,8 C10.21,8 12,6.21000003 12,4 C12,1.79000001 10.21,0 8.00000002,0 Z M8,9.00000004 C5.33000002,9.00000004 0,10.34 0,13 L0,16 L16,16 L16,13 C16,10.34 10.67,9.00000004 8,9.00000004 Z" id="PersonOutlineOutlined"></path>
                </g>
            </g>
        </g>
    </g>
</svg>