<?xml version="1.0" encoding="UTF-8"?>
<svg width="20px" height="18px" viewBox="0 0 20 18" version="1.1" xmlns="http://www.w3.org/2000/svg" xmlns:xlink="http://www.w3.org/1999/xlink">
    <title>Combined Shape</title>
    <g id="Stem-Screens" stroke="none" stroke-width="1" fill="none" fill-rule="evenodd">
        <g id="FMECA-Calculator-1.1" transform="translate(-29.000000, -239.000000)" fill="#000000" fill-rule="nonzero">
            <g id="Group-20" transform="translate(-1.000000, 70.000000)">
                <g id="Left-Menu-items" transform="translate(30.000000, 131.000000)">
                    <g id="Group-6" transform="translate(0.000000, 38.000000)">
                        <path d="M16,0 L16,5 L17,5 C18.6600001,5 20,6.34000003 20,8 L20,8 L20,14 L16,14 L16,18 L4,18 L4,14 L0,14 L0,8 C0,6.34000003 1.34000001,5 3,5 L3,5 L4,5 L4,0 L16,0 Z M14,12 L6.00000003,12 L6.00000003,16 L14,16 L14,12 Z M17,7.00000003 L3.00000001,7.00000003 C2.45000001,7.00000003 2.00000001,7.45000003 2.00000001,8.00000003 L2.00000001,8.00000003 L2.00000001,12 L4.00000001,12 L4.00000001,10 L16,10 L16,12 L18,12 L18,8.00000003 C18,7.45000003 17.5500001,7.00000003 17,7.00000003 L17,7.00000003 Z M16.0000001,7.50000003 C16.5523001,7.50000003 17.0000001,7.94770003 17.0000001,8.50000003 C17.0000001,9.05230004 16.5523001,9.50000003 16.0000001,9.50000003 C15.4477001,9.50000003 15.0000001,9.05230004 15.0000001,8.50000003 C15.0000001,7.94770003 15.4477001,7.50000003 16.0000001,7.50000003 Z M14,2.00000001 L6.00000003,2.00000001 L6.00000003,5.00000001 L14,5.00000001 L14,2.00000001 Z" id="Combined-Shape"></path>
                    </g>
                </g>
            </g>
        </g>
    </g>
</svg>