<?xml version="1.0" encoding="UTF-8"?>
<svg width="23px" height="21px" viewBox="0 0 23 21" version="1.1" xmlns="http://www.w3.org/2000/svg" xmlns:xlink="http://www.w3.org/1999/xlink">
    <title>Combined Shape</title>
    <g id="Stem-Screens" stroke="none" stroke-width="1" fill="none" fill-rule="evenodd">
        <g id="FMECA-Calculator-1.1" transform="translate(-1384.000000, -101.000000)" fill="#FFFFFF" fill-rule="nonzero">
            <g id="Project-management-menu-top-left" transform="translate(1373.000000, 95.000000)">
                <path d="M30.0300001,17 C30.1383334,17 30.2258334,17.0625 30.2635649,17.1585649 L30.2800001,17.22 L30.4799001,18.58 C30.6824751,18.6625 30.8737438,18.761875 31.0537063,18.878125 L31.2299001,19 L32.5100001,18.5 C32.6060001,18.468 32.7084001,18.4872 32.7762401,18.55248 L32.8200001,18.61 L33.8500001,20.4000001 C33.8980001,20.4880001 33.8948001,20.5888001 33.8404001,20.6665601 L33.7900001,20.7200001 L32.7200001,21.5700001 C32.7425001,21.7800001 32.7425001,21.9956251 32.7283954,22.2126563 L32.7099001,22.4300001 L33.7700001,23.2800001 C33.8500001,23.3440001 33.8788001,23.4400001 33.8564001,23.5321601 L33.8300001,23.6000001 L32.7999001,25.3900001 C32.7499834,25.4816667 32.6513862,25.5316667 32.5504626,25.5168519 L32.4900001,25.5 L31.2099001,25 C31.0374001,25.1200001 30.8536501,25.2343751 30.6628688,25.3304688 L30.4699001,25.4200001 L30.2700001,26.7800001 C30.2533334,26.8800001 30.1741667,26.9591667 30.0787964,26.9827779 L30.0200001,26.9900001 L27.9500001,26.9900001 C27.8416667,26.9900001 27.7541667,26.9275001 27.7164353,26.8372223 L27.7000001,26.7800001 L27.5000001,25.4200001 C27.2974251,25.3375001 27.1061563,25.2381251 26.9261938,25.1218751 L26.7500001,25 L25.4800001,25.5 C25.3840001,25.5320001 25.2816001,25.5128 25.2137601,25.4475201 L25.1700001,25.3900001 L24.1400001,23.6000001 C24.0920001,23.5120001 24.0952001,23.4112001 24.1496001,23.3334401 L24.2000001,23.2800001 L25.2700001,22.4300001 C25.2475001,22.2200001 25.2475001,22.0043751 25.2615626,21.7873438 L25.2800001,21.5700001 L24.2100001,20.7100001 C24.1300001,20.6460001 24.1012001,20.55 24.1236001,20.45784 L24.1500001,20.3900001 L25.1800001,18.6 C25.2300001,18.5083334 25.3286112,18.4583334 25.4295371,18.4731482 L25.4900001,18.49 L26.7700001,18.99 C26.9425001,18.87 27.1262501,18.755625 27.3170313,18.6595313 L27.5100001,18.57 L27.7099001,17.21 C27.7265667,17.11 27.8057334,17.0308334 27.9011038,17.0072223 L27.9599001,17 L30.0300001,17 Z M11,8 L11.01,8 C11.01,6.9 11.9,6 13,6 L13,6 L19,6 L21,8 L31,8 C32.0500001,8 32.9177686,8.82004133 32.9944872,9.85130541 L33,10 L33,15 L31,15 L31,10 L13,10 L13,22 L22,22 L22,24 L13,24 C11.95,24 11.0822314,23.1799587 11.0055128,22.1486946 L11,22 L11,8 Z M29.0000001,20.5000001 C28.1700001,20.5000001 27.5000001,21.1700001 27.5000001,22.0000001 C27.5000001,22.8300001 28.1700001,23.5000001 29.0000001,23.5000001 C29.8300001,23.5000001 30.5000001,22.8300001 30.5000001,22.0000001 C30.5000001,21.1700001 29.8300001,20.5000001 29.0000001,20.5000001 Z" id="Combined-Shape"></path>
            </g>
        </g>
    </g>
</svg>