<?xml version="1.0" encoding="UTF-8"?>
<svg width="20px" height="20px" viewBox="0 0 20 20" version="1.1" xmlns="http://www.w3.org/2000/svg" xmlns:xlink="http://www.w3.org/1999/xlink">
    <title>HelpOutlineOutlined</title>
    <g id="Stem-Screens" stroke="none" stroke-width="1" fill="none" fill-rule="evenodd">
        <g id="FMECA-Calculator-1.1" transform="translate(-1284.000000, -24.000000)" fill="#000000" fill-rule="nonzero">
            <g id="Group-21" transform="translate(1180.000000, 5.000000)">
                <g id="Top-icons-comments/-Help" transform="translate(0.000000, 19.000000)">
                    <path d="M113,16.0000001 L115,16.0000001 L115,14.0000001 L113,14.0000001 L113,16.0000001 Z M114,0 C108.48,0 104,4.48000002 104,10 C104,15.5200001 108.48,20 114,20 C119.52,20 124,15.5200001 124,10 C124,4.48000002 119.52,0 114,0 Z M114,18 C109.59,18 106,14.4100001 106,10 C106,5.59000002 109.59,2.00000001 114,2.00000001 C118.41,2.00000001 122,5.59000002 122,10 C122,14.4100001 118.41,18 114,18 Z M114,4.00000002 C111.79,4.00000002 110,5.79000002 110,8.00000002 L112,8.00000002 C112,6.90000003 112.9,6.00000002 114,6.00000002 C115.1,6.00000002 116,6.90000003 116,8.00000002 C116,10 113,9.75000004 113,13 L115,13 C115,10.75 118,10.5 118,8.00000002 C118,5.79000002 116.21,4.00000002 114,4.00000002 Z" id="HelpOutlineOutlined"></path>
                </g>
            </g>
        </g>
    </g>
</svg>