<?xml version="1.0" encoding="UTF-8"?>
<svg width="23px" height="20px" viewBox="0 0 23 20" version="1.1" xmlns="http://www.w3.org/2000/svg" xmlns:xlink="http://www.w3.org/1999/xlink">
    <title>VisibilityOffOutlined</title>
    <g id="Stem-Screens" stroke="none" stroke-width="1" fill="none" fill-rule="evenodd" fill-opacity="0.54">
        <g id="Project-overview--1.0" transform="translate(-554.000000, -180.000000)" fill="#000000" fill-rule="nonzero">
            <g id="Group-11" transform="translate(66.000000, 173.000000)">
                <g id="Group-7" transform="translate(488.500000, 7.000000)">
                    <path d="M11,3.55000001 C14.7900001,3.55000001 18.1700001,5.68000002 19.8200001,9.05000001 C19.2300001,10.27 18.4000001,11.32 17.4100001,12.1700001 L18.8200001,13.5800001 C20.2100001,12.3500001 21.3100001,10.81 22.0000001,9.05000001 C20.2700001,4.66000002 16.0000001,1.55000001 11,1.55000001 C9.73000004,1.55000001 8.51000004,1.75000001 7.36000003,2.12000001 L9.01000004,3.77000002 C9.66000004,3.64000002 10.32,3.55000001 11,3.55000001 Z M9.93000004,4.68999002 L12.0000001,6.76000003 C12.5700001,7.01000003 13.0300001,7.47000003 13.2800001,8.04000003 L15.3500001,10.11 C15.43,9.77000004 15.490037,9.41000004 15.490037,9.04000004 C15.5000001,6.56000003 13.4800001,4.55000002 11,4.55000002 C10.63,4.55000002 10.28,4.59999002 9.93000004,4.68999002 Z M1.01,1.42000001 L3.69000002,4.10000002 C2.06000001,5.38000002 0.770000003,7.08000003 0,9.05000004 C1.73000001,13.4400001 6,16.5500001 11,16.5500001 C12.5200001,16.5500001 13.9800001,16.2600001 15.3200001,15.7300001 L18.7400001,19.1500001 L20.1500001,17.7400001 L2.42000001,0 L1.01,1.42000001 Z M8.51000004,8.92000004 L11.12,11.53 C11.08,11.54 11.04,11.55 11,11.55 C9.62000004,11.55 8.50000004,10.43 8.50000004,9.05000004 C8.50000004,9.00000004 8.51000004,8.97000004 8.51000004,8.92000004 Z M5.11000002,5.51999002 L6.86000003,7.27000003 C6.63000003,7.82000003 6.50000003,8.42000004 6.50000003,9.05000004 C6.50000003,11.53 8.52000004,13.5500001 11,13.5500001 C11.63,13.5500001 12.2300001,13.4200001 12.7700001,13.1900001 L13.7500001,14.1700001 C12.8700001,14.4100001 11.95,14.5500001 11,14.5500001 C7.21000003,14.5500001 3.83000002,12.4200001 2.18000001,9.05000004 C2.88000001,7.62000003 3.90000002,6.43999003 5.11000002,5.51999002 Z" id="VisibilityOffOutlined"></path>
                </g>
            </g>
        </g>
    </g>
</svg>