<?xml version="1.0" encoding="UTF-8"?>
<svg width="390px" height="432px" viewBox="0 0 390 432" version="1.1" xmlns="http://www.w3.org/2000/svg" xmlns:xlink="http://www.w3.org/1999/xlink">
    <title>Group 12</title>
    <defs>
        <polygon id="path-1" points="0 0 75 0 75 150 0 150"></polygon>
        <polygon id="path-3" points="0 0 75 0 75 150 0 150"></polygon>
    </defs>
    <g id="Stem-Screens" stroke="none" stroke-width="1" fill="none" fill-rule="evenodd">
        <g id="Login-screen-1.0-" transform="translate(-910.000000, -136.000000)">
            <g id="Group-12" transform="translate(910.000000, 136.000000)">
                <g id="Group-3" transform="translate(0.000000, 187.000000)">
                    <mask id="mask-2" fill="white">
                        <use xlink:href="#path-1"></use>
                    </mask>
                    <g id="Clip-2"></g>
                    <path d="M75,150 C33.6446932,150 -0.000159876703,116.354991 -0.000159876703,75.0001998 C-0.000159876703,33.6450092 33.6446932,0 75,0 L75,57.0089772 C65.0792509,57.0089772 57.0078755,65.0804859 57.0078755,75.0001998 C57.0078755,84.9199138 65.0792509,92.9910228 75,92.9910228 L75,150 Z" id="Fill-1" fill="#FFFFFF" mask="url(#mask-2)"></path>
                </g>
                <g id="Group-6" transform="translate(315.000000, 282.000000)">
                    <mask id="mask-4" fill="white">
                        <use xlink:href="#path-3"></use>
                    </mask>
                    <g id="Clip-5"></g>
                    <path d="M0,150 L0,92.990567 C9.92073326,92.990567 17.9920957,84.9193935 17.9920957,74.9996003 C17.9920957,65.0794074 9.92073326,57.009433 0,57.009433 L0,0 C41.3552407,0 75.00004,33.6440791 75.00004,74.9996003 C75.00004,116.354722 41.3552407,150 0,150" id="Fill-4" fill="#FFFFFF" mask="url(#mask-4)"></path>
                </g>
                <polygon id="Fill-7" fill="#FFFFFF" points="101 337 288 337 288 280 101 280"></polygon>
                <polygon id="Fill-9" fill="#FFFFFF" points="100 244 193 244 193 187 100 187"></polygon>
                <polygon id="Fill-10" fill="#FFFFFF" points="204 431 288 431 288 374 204 374"></polygon>
                <path d="M203.183749,244 L286.875319,244 L286.875319,186.753926 L203.183749,186.753926 L203.183749,244 Z M100.686746,57.2460736 L193.782239,57.2460736 L193.782239,0 L100.686746,0 L100.686746,57.2460736 Z M100.686746,150.62384 L286.875319,150.62384 L286.875319,93.3777659 L100.686746,93.3777659 L100.686746,150.62384 Z M390,168.688281 C390,127.161498 356.152394,93.3777659 314.547869,93.3777659 L314.547869,150.62384 C324.528403,150.62384 332.648419,158.727312 332.648419,168.688281 C332.648419,178.64925 324.528403,186.753926 314.547869,186.753926 L314.547869,244 C356.152394,244 390,210.215064 390,168.688281 L390,168.688281 Z M75.452131,150.62384 C33.8472039,150.62384 0,116.838502 0,75.3117191 C0,33.7849365 33.8472039,0 75.452131,0 L75.452131,57.2460736 C65.4711947,57.2460736 57.3515811,65.3507498 57.3515811,75.3117191 C57.3515811,85.2726884 65.4711947,93.3777659 75.452131,93.3777659 L75.452131,150.62384 Z" id="Fill-11" fill="#010151"></path>
            </g>
        </g>
    </g>
</svg>