<?xml version="1.0" encoding="UTF-8"?>
<svg width="18px" height="14px" viewBox="0 0 18 14" version="1.1" xmlns="http://www.w3.org/2000/svg" xmlns:xlink="http://www.w3.org/1999/xlink">
    <title>ViewListOutlined</title>
    <g id="Stem-Screens" stroke="none" stroke-width="1" fill="none" fill-rule="evenodd">
        <g id="FMECA-Calculator-1.1" transform="translate(-29.000000, -146.000000)" fill="#000000" fill-rule="nonzero">
            <g id="Group-17" transform="translate(-1.000000, 70.000000)">
                <path d="M30,76 L30,90 L48,90 L48,76 L30,76 Z M34,78 L34,80 L32,80 L32,78 L34,78 Z M32,84 L32,82 L34,82 L34,84 L32,84 Z M32,86 L34,86 L34,88 L32,88 L32,86 Z M46,88 L36,88 L36,86 L46,86 L46,88 Z M46,84 L36,84 L36,82 L46,82 L46,84 Z M46,80 L36,80 L36,78 L46,78 L46,80 Z" id="ViewListOutlined"></path>
            </g>
        </g>
    </g>
</svg>