<?xml version="1.0" encoding="UTF-8"?>
<svg width="46px" height="28px" viewBox="0 0 46 28" version="1.1" xmlns="http://www.w3.org/2000/svg" xmlns:xlink="http://www.w3.org/1999/xlink">
    <title>Group 7 Copy</title>
    <g id="Stem-Screens" stroke="none" stroke-width="1" fill="none" fill-rule="evenodd">
        <g id="Home-1.0" transform="translate(-1065.000000, -321.000000)" fill="#FFFFFF">
            <g id="Group-18" transform="translate(1046.000000, 302.000000)">
                <g id="Group-12" transform="translate(19.937500, 19.000000)">
                    <path d="M23.3671593,27.1111111 L32.9921135,27.1111111 L32.9921135,20.7504363 L23.3671593,20.7504363 L23.3671593,27.1111111 Z M11.5794854,6.36067484 L22.2859382,6.36067484 L22.2859382,0 L11.5794854,0 L11.5794854,6.36067484 Z M11.5794854,16.7359822 L32.9921135,16.7359822 L32.9921135,10.3753073 L11.5794854,10.3753073 L11.5794854,16.7359822 Z M44.8519737,18.7431423 C44.8519737,14.1290554 40.9593277,10.3753073 36.1745968,10.3753073 L36.1745968,16.7359822 C37.3224087,16.7359822 38.2562516,17.636368 38.2562516,18.7431423 C38.2562516,19.8499167 37.3224087,20.7504363 36.1745968,20.7504363 L36.1745968,27.1111111 C40.9593277,27.1111111 44.8519737,23.3572293 44.8519737,18.7431423 L44.8519737,18.7431423 Z M8.67737691,16.7359822 C3.89259974,16.7359822 0,12.9820557 0,8.36796879 C0,3.75388183 3.89259974,0 8.67737691,0 L8.67737691,6.36067484 C7.52951872,6.36067484 6.59572207,7.26119442 6.59572207,8.36796879 C6.59572207,9.47474315 7.52951872,10.3753073 8.67737691,10.3753073 L8.67737691,16.7359822 Z" id="Fill-11"></path>
                </g>
            </g>
        </g>
    </g>
</svg>