<?xml version="1.0" encoding="UTF-8"?>
<svg width="140px" height="36px" viewBox="0 0 140 36" version="1.1" xmlns="http://www.w3.org/2000/svg" xmlns:xlink="http://www.w3.org/1999/xlink">
    <title>stem-logo-positive</title>
    <g id="Stem-Screens" stroke="none" stroke-width="1" fill="none" fill-rule="evenodd">
        <g id="Login-screen-1.0-" transform="translate(-368.000000, -121.000000)" fill="#010151" fill-rule="nonzero">
            <g id="stem-logo-positive" transform="translate(368.000000, 121.000000)">
                <rect id="Rectangle" x="17" y="0" width="14" height="8"></rect>
                <g id="Group">
                    <path d="M81.3427379,24.3636606 C80.6570552,23.845744 79.9134274,23.4285334 79.1118546,23.109631 C78.3078674,22.7931264 77.5256096,22.5413614 76.7626669,22.354336 L74.425551,21.7500999 C73.9571621,21.6350073 73.4718725,21.4863461 72.9648536,21.3041162 C72.4578346,21.1218862 71.984617,20.8940988 71.5452006,20.6183562 C71.1057842,20.3426136 70.7508709,20.0021313 70.4828752,19.592114 C70.2148795,19.1820967 70.0796744,18.695351 70.0796744,18.1294792 C70.0796744,17.455708 70.2776532,16.8538697 70.6687821,16.3239643 C71.0623254,15.7940589 71.6176318,15.3768483 72.3347015,15.0699347 C73.0517711,14.7654189 73.9016314,14.6119622 74.881868,14.6119622 C76.2532335,14.6119622 77.3904046,14.916478 78.2933812,15.5231118 C79.1963577,16.1297456 79.7106198,16.9833489 79.8361674,18.0815239 L83.3176974,18.0815239 C83.2863105,16.8059145 82.9120822,15.6741708 82.1950126,14.6862928 C81.477943,13.7008126 80.4977063,12.9239377 79.2567171,12.3604636 C78.0133136,11.7945917 76.5815887,11.5140536 74.9615424,11.5140536 C73.3414962,11.5140536 71.9146001,11.7993872 70.6373952,12.3676569 C69.3601904,12.9359265 68.3461525,13.7319835 67.6001104,14.7534301 C66.8516538,15.7748768 66.4774256,16.9689623 66.4774256,18.3404822 C66.4774256,19.9973358 67.0351464,21.3280938 68.1530024,22.3327561 C69.2708585,23.3398162 70.7870865,24.0999068 72.704101,24.6202211 L75.5313351,25.3851072 C76.3884386,25.6104969 77.1586245,25.8694552 77.8394785,26.1619821 C78.5203325,26.4569069 79.0635671,26.82856 79.4643535,27.2769415 C79.8651399,27.725323 80.0655331,28.3031837 80.0655331,29.005728 C80.0655331,29.7802051 79.8361674,30.4539763 79.3750216,31.031837 C78.9162901,31.6072999 78.286138,32.0580791 77.4869796,32.3769815 C76.6878212,32.6982816 75.7800159,32.8589317 74.7587349,32.8589317 C73.8316145,32.8589317 72.9817542,32.7222592 72.2043252,32.4465166 C71.4293105,32.1707739 70.7943297,31.7511656 70.2993826,31.1804982 C69.8044356,30.6122286 69.5219536,29.8976955 69.4519367,29.0392967 L65.8303728,29.0392967 C65.9076329,30.4707606 66.3180768,31.7056081 67.0568758,32.7462368 C67.7980892,33.7868656 68.8217846,34.5901159 70.1303763,35.15359 C71.438968,35.7170641 72.9889973,36 74.7804642,36 C76.5719312,36 78.2450936,35.697882 79.5657573,35.0960437 C80.8864209,34.4918076 81.89563,33.6693752 82.5933846,32.623951 C83.2911392,31.5785267 83.6388094,30.3844412 83.6388094,29.0368989 C83.6388094,27.9698948 83.4263443,27.0515519 83.0014141,26.2866658 C82.576484,25.5217797 82.0211775,24.8791794 81.3354948,24.3612628 L81.3427379,24.3636606 Z" id="Path"></path>
                    <path d="M94.1075432,32.6958838 C93.8974925,32.734248 93.6512262,32.7534301 93.3711586,32.7534301 C92.9896872,32.7534301 92.6371883,32.6934861 92.3136619,32.573598 C91.9901355,32.4537099 91.7269686,32.2259225 91.524161,31.887838 C91.3213534,31.5521513 91.2199496,31.0462235 91.2199496,30.3724524 L91.2199496,20.5656054 L94.9018729,20.5656054 L94.9018729,17.7794059 L91.2199496,17.7794059 L91.2199496,13.5089916 L87.7263477,13.5089916 L87.7263477,17.7794059 L85.0970924,17.7794059 L85.0970924,20.5656054 L87.7263477,20.5656054 L87.7263477,31.091781 C87.7263477,32.1683762 87.9726141,33.0603437 88.4627324,33.772479 C88.9528507,34.4846144 89.5950747,35.0097243 90.3918187,35.3502065 C91.1861484,35.6906887 92.0432518,35.8537365 92.963129,35.8369522 C93.5232642,35.8297589 93.9916532,35.7842014 94.3658814,35.7026775 C94.7401097,35.6211536 95.0274204,35.5420274 95.230228,35.4652991 L94.6000759,32.5975756 C94.4841858,32.6215532 94.3200083,32.6527241 94.1099576,32.6910883 L94.1075432,32.6958838 Z" id="Path"></path>
                    <path d="M110.414238,19.6160916 C109.658538,18.9039563 108.806264,18.3812442 107.854999,18.050353 C106.903735,17.7170641 105.923499,17.5516185 104.909461,17.5516185 C103.241127,17.5516185 101.787673,17.9424537 100.544269,18.7241242 C99.3008657,19.5057946 98.3351154,20.5919808 97.6470182,21.9850806 C96.9565067,23.3781804 96.6136654,24.9870787 96.6136654,26.8141734 C96.6136654,28.6412681 96.9589211,30.2741441 97.6470182,31.6480618 C98.3375297,33.0219795 99.3177664,34.0841881 100.592557,34.8394831 C101.864933,35.5947782 103.388404,35.9712269 105.155727,35.9712269 C106.464319,35.9712269 107.630463,35.7722126 108.656572,35.3741841 C109.680268,34.9761556 110.534957,34.4150793 111.215811,33.6909551 C111.896665,32.966831 112.369882,32.1228187 112.635464,31.1541228 L109.327769,30.5618756 C109.117718,31.1181564 108.813507,31.5881178 108.417549,31.9669642 C108.019177,32.3458106 107.548374,32.6311443 107.002725,32.8205675 C106.457076,33.0099907 105.853482,33.1059012 105.191943,33.1059012 C104.170662,33.1059012 103.279757,32.8877048 102.516814,32.4513121 C101.753872,32.0149194 101.159935,31.3771147 100.735005,30.5426935 C100.341462,29.7658186 100.13624,28.8282936 100.109682,27.7469029 L112.860001,27.7469029 L112.860001,26.5168509 C112.860001,24.9007593 112.642707,23.5244439 112.205705,22.3903024 C111.768703,21.2561609 111.172352,20.3354203 110.416652,19.6232849 L110.414238,19.6160916 Z M100.11451,25.1405355 C100.157969,24.3756494 100.341462,23.6563208 100.686717,22.9873451 C101.080261,22.2248568 101.640396,21.6062342 102.369537,21.1314773 C103.098679,20.6543226 103.953368,20.4169442 104.933605,20.4169442 C105.836581,20.4169442 106.626082,20.6231517 107.299693,21.033169 C107.973304,21.4431864 108.497223,22.0018649 108.871452,22.7092047 C109.24568,23.4165446 109.431587,24.2269881 109.431587,25.1405355 L100.112096,25.1405355 L100.11451,25.1405355 Z" id="Shape"></path>
                    <path d="M138.449971,19.0717997 C137.416618,18.0575463 136.086297,17.5516185 134.459007,17.5516185 C133.164902,17.5516185 132.051875,17.8369522 131.117511,18.4052218 C130.183148,18.9734914 129.499879,19.733582 129.072535,20.6854935 L128.886628,20.6854935 C128.497913,19.7096044 127.894319,18.9447183 127.080675,18.3884375 C126.26703,17.8321567 125.260235,17.5540163 124.06029,17.5540163 C122.860346,17.5540163 121.85838,17.8297589 121.010934,18.3836419 C120.161073,18.937525 119.550236,19.7048088 119.176008,20.6878913 L118.953885,20.6878913 L118.953885,17.7865992 L115.600317,17.7865992 L115.600317,35.6115625 L119.093919,35.6115625 L119.093919,24.6202211 C119.093919,23.8145731 119.262926,23.1072332 119.603353,22.4958039 C119.941365,21.8843746 120.390439,21.4072199 120.94816,21.0619422 C121.505881,20.7166644 122.114303,20.5464233 122.775842,20.5464233 C123.748836,20.5464233 124.540751,20.8413481 125.149174,21.4287998 C125.757597,22.0162515 126.059394,22.7955242 126.059394,23.7618223 L126.059394,35.6115625 L129.540924,35.6115625 L129.540924,24.248568 C129.540924,23.1647795 129.857207,22.2776076 130.487359,21.5846543 C131.117511,20.8917011 132.003587,20.5464233 133.140758,20.5464233 C134.060635,20.5464233 134.850136,20.8173705 135.51409,21.3592647 C136.175629,21.9011589 136.506398,22.7739443 136.506398,23.9824164 L136.506398,35.6115625 L140,35.6115625 L140,23.6587185 C140,21.6158252 139.483324,20.0884508 138.452385,19.0741974 L138.449971,19.0717997 Z" id="Path"></path>
                    <path d="M11.0674991,21.9826828 C4.96395682,21.9826828 0,17.052884 0,10.9913414 C0,4.92979885 4.96395682,0 11.0674991,0 L11.0674991,8.35380312 C9.60438727,8.35380312 8.41168558,9.53589983 8.41168558,10.9913414 C8.41168558,12.446783 9.60197289,13.6288797 11.0674991,13.6288797 L11.0674991,21.9826828 Z" id="Path"></path>
                    <path d="M46.1411375,35.6115625 L46.1411375,27.2577594 C47.6042493,27.2577594 48.796951,26.0756627 48.796951,24.6202211 C48.796951,23.1647795 47.6066637,21.9826828 46.1411375,21.9826828 L46.1411375,13.6288797 C52.2446798,13.6288797 57.2086366,18.5586786 57.2086366,24.6202211 C57.2086366,30.6817637 52.2446798,35.6115625 46.1411375,35.6115625 Z" id="Path"></path>
                    <rect id="Rectangle" x="14.7687373" y="13.6288797" width="27.31142" height="8.35380312"></rect>
                    <rect id="Rectangle" x="29.8054703" y="27.2553617" width="12.2771014" height="8.35380312"></rect>
                </g>
            </g>
        </g>
    </g>
</svg>